<svg xmlns="http://www.w3.org/2000/svg" width="201.281" height="224.581" viewBox="0 0 201.281 224.581"><g transform="translate(20459.307 10603.228)"><path d="M34.017-21.445c0-13.422-6.05-21.866-18.023-21.866A24.134,24.134,0,0,0,4.778-40.916V-1.028C7.046.3,11.268,1.3,16.247,1.3,28.535,1.3,34.017-8.085,34.017-21.445Zm-5.987-.063c0,12.225-3.34,18.716-12.1,18.716a15.559,15.559,0,0,1-5.419-.819v-35.1a13.228,13.228,0,0,1,5.356-.882C24.124-39.593,28.031-33.417,28.031-21.508ZM56.514-33.859c-8.066-.189-11.28.693-14.62,2.395V.674H47.44v-29.68c1.827-1.2,4.978-1.449,7.751-.63Zm54.761,12.666c0-12.6-5.419-22.118-19.535-22.118A28.675,28.675,0,0,0,79.2-40.79V-1.217C82.224.359,86.635,1.3,92.244,1.3,106.233,1.3,111.275-8.715,111.275-21.193Zm-10.335-.189c0,11.406-2.395,15.628-8.633,15.628a9.912,9.912,0,0,1-3.025-.441v-30a7.8,7.8,0,0,1,2.9-.441C98.419-36.631,100.94-32.094,100.94-21.382Zm45.308,5.608c.441-11.469-4.537-18.148-14.368-18.148-9.767,0-15.313,6.869-15.313,17.518,0,10.839,5.987,17.707,16.384,17.707,5.734,0,9.515-1.134,12.162-2.458l-2.206-6.112a19.66,19.66,0,0,1-8.822,1.827c-4.978,0-7.5-2.458-8.192-7.436Zm-9.137-3.655-11.847,1.764c-.315-6.995,2.206-10.461,6.239-10.461C135.095-28.124,137.111-25.478,137.111-19.428ZM181.348.674v-23.82c0-6.175-3.844-10.776-14.62-10.776A35.6,35.6,0,0,0,152.487-31.4V.674h9.83v-27.79a11.567,11.567,0,0,1,4.159-.693c3.97,0,5.041,2.332,5.041,4.726V.674ZM205.483.233V-5.817a6.05,6.05,0,0,1-2.08.378c-2.206,0-3.151-1.386-3.151-3.97V-26.927h5.23v-6.365h-5.23v-9.767l-9.83,2.521v7.247H186.7v6.365h3.718V-8.652c0,5.23,3.088,9.83,10.209,9.83A12.171,12.171,0,0,0,205.483.233Z" transform="translate(-20464.084 -10417.201)" fill="#7db2ff"/><path d="M13.942,12.072a17.622,17.622,0,0,0-4.012.02c.7-.709,1.209-1.5,1.01-2.137-.167-.537-.768-.8-1.788-.781-2.2.039-4.776,2.085-6.66,3.578A12.4,12.4,0,0,1,.6,14.1a1.937,1.937,0,0,1,.07-.381,6.418,6.418,0,0,1,.41-1.071.3.3,0,0,0,.056-.027c.029-.018,2.963-1.855,5.808-3.891,5.232-3.745,5.739-4.937,5.6-5.558-.057-.246-.265-.553-.935-.623C7.392,2.11.92,10.42.09,13.569c-.1.392-.181.869.141,1.079a.484.484,0,0,0,.274.081c.441,0,1.1-.508,2.362-1.506,1.817-1.44,4.3-3.412,6.3-3.448.687-.013,1.128.118,1.2.359.116.372-.424,1.2-1.438,2.071-2.281.294-4.426.84-4.729,1.5a.565.565,0,0,0,.189.69c1.013.853,3.207-.487,3.855-.918a11.535,11.535,0,0,0,.932-.693,17.725,17.725,0,0,1,4.666-.113.3.3,0,1,0,.1-.593ZM5.019,7.13C7.4,4.573,9.66,3.137,11.278,3.137a2.548,2.548,0,0,1,.265.013c.233.024.395.087.412.16.036.157-.051,1.133-5.357,4.931-1.916,1.371-3.873,2.652-4.946,3.342A26.777,26.777,0,0,1,5.019,7.13Zm-.243,6.8-.011-.01a8.028,8.028,0,0,1,3.141-.947c-1.4.932-2.691,1.326-3.13.957Zm24.256-1.645a.3.3,0,0,0-.373-.2c-.949.277-3.453,1.026-6.1,1.97,1.215-1.786,2.451-4.131,1.6-4.858-.9-.763-2.534.506-4.43,1.975-1.675,1.3-3.574,2.768-4.556,2.412-.753-.273-.8-.621-.809-.736-.115-.938,1.721-2.55,2.9-3.346a.3.3,0,0,0-.336-.5c-.345.232-3.363,2.308-3.166,3.918.067.55.471.963,1.2,1.229,1.3.471,3.245-1.041,5.13-2.5,1.4-1.087,3.145-2.439,3.671-1.993.35.3-.326,2.232-2.2,4.76-3.492,1.3-6.929,2.866-7.122,4.082a.878.878,0,0,0,.452.893,1.724,1.724,0,0,0,.993.3c1.759,0,4.119-2.231,5.942-4.622l.1-.128c2.33-.86,4.857-1.677,6.9-2.274a.3.3,0,0,0,.2-.373Zm-13.8,6.6c-.22-.15-.2-.256-.2-.3.126-.794,2.67-2.034,5.8-3.244-1.955,2.381-4.392,4.372-5.605,3.545Zm47.4-6.783c-.026,0-1.3-.014-3.219-.025C68.061,1.646,67.4.686,67.115.276c-.347-.5-1.161-.186-1.428-.081C62.492,1.439,55.136,6.86,48.424,12.1c-7.637.1-7.67.375-7.708.717-.04.362.4.456.725.526a32.308,32.308,0,0,1,4,1.1c-5.509,4.371-10.005,8.12-10.427,8.473a.3.3,0,1,0,.386.462c.107-.089,4.881-4.071,10.711-8.687,3.219,1.262,4.406,2.689,4.786,3.8a3.609,3.609,0,0,1-.626,3.239.3.3,0,0,0-.051.09l0,.008a.3.3,0,0,0-.015.105s0,.006,0,.009a.3.3,0,0,0,.026.1l0,.008a.3.3,0,0,0,.066.089l0,.005,0,0,0,0a.3.3,0,0,0,.094.054c.007,0,.014,0,.021,0a.3.3,0,0,0,.079.014h.024a.3.3,0,0,0,.1-.025l0,0a.3.3,0,0,0,.087-.065l.006,0c.043-.047,4.136-4.589,8.194-9.454,1.306.007,2.561.017,3.71.03h0a.3.3,0,0,0,0-.6ZM46,14a30.732,30.732,0,0,0-3.751-1.1c1.132-.091,3.065-.152,5.386-.189Q46.808,13.364,46,14Zm5.6,6.244a3.731,3.731,0,0,0-.127-1.94c-.545-1.6-2.158-2.958-4.811-4.047q.978-.772,1.986-1.56c2.924-.038,6.327-.043,9.492-.029C55.591,15.714,53.074,18.583,51.6,20.247Zm7.039-8.174c-1.94-.01-4.369-.015-6.786,0-.873,0-1.676.01-2.417.017C55.947,7.025,62.9,1.925,65.905.755c.571-.222.714-.138.715-.138.075.1.5,1.218-7.64,11.044Zm19.614.184a.3.3,0,0,0-.391-.168c-1.571.629-5.952,2.195-7.331,1.89-.135-.03-.156-.081-.165-.1-.156-.364.533-1.508.99-2.265.689-1.143,1.067-1.811.815-2.237a.6.6,0,0,0-.589-.268c-.758.029-2.184.949-4.443,2.461-1.461.977-3.9,2.609-4.359,2.435-.316-.518,1.178-2.765,2.786-4.556a.3.3,0,1,0-.448-.4c-.861.959-3.61,4.175-2.827,5.311.532.771,2.229-.31,5.182-2.287,1.636-1.095,3.489-2.335,4.131-2.36h.044a6.633,6.633,0,0,1-.809,1.592c-.671,1.114-1.306,2.166-1.027,2.814a.779.779,0,0,0,.588.45,2.519,2.519,0,0,0,.533.049c2.2,0,6.934-1.882,7.151-1.969a.3.3,0,0,0,.168-.392Zm9.885,0a.3.3,0,0,0-.391-.169C87.7,12.108,82.893,14,79.414,14c-.828,0-1.294-.226-1.387-.671-.285-1.369,2.542-4.657,4.879-5.676.945-.412,1.108-.232,1.109-.23.189.229-.325,1.439-1.079,2.539a.3.3,0,0,0,.5.34c.4-.581,1.651-2.531,1.047-3.263-.4-.481-1.225-.195-1.814.062-2.259.984-5.629,4.425-5.227,6.35.109.525.541,1.15,1.976,1.15,3.593,0,8.352-1.872,8.553-1.951A.3.3,0,0,0,88.136,12.257Zm13.033-.041a.3.3,0,0,0-.412-.108c-.034.02-3.444,2-5.427,1.884-.211-.012-.356-.06-.389-.128-.145-.308.6-1.328,1.043-1.938.564-.774.91-1.268.91-1.643a.386.386,0,0,0-.2-.356c-.325-.169-.749.108-2.173,1.1-1.636,1.137-4.107,2.858-5.589,2.752-.566-.039-.876-.22-.92-.536-.118-.848,1.387-2.521,3.248-3.194a3.35,3.35,0,0,1,3.144.2.3.3,0,0,0,.372-.473,3.925,3.925,0,0,0-3.72-.29c-2.043.738-3.812,2.606-3.639,3.843.05.358.308.972,1.474,1.053,1.694.119,4.167-1.6,5.974-2.859.442-.307.923-.641,1.258-.845-.165.271-.416.617-.622.9-.719.987-1.4,1.919-1.1,2.549a.96.96,0,0,0,.9.472q.1.006.2.006c2.169,0,5.424-1.888,5.565-1.971A.3.3,0,0,0,101.169,12.216Zm30.008-.045c-3.742,4.491-13.487,10.7-17.976,9.595a2.625,2.625,0,0,1-2.057-2.2c-1.368-6.422,9.913-16.468,16.992-18.435,1.659-.461,2.754-.409,3.165.149.756,1.025-.626,3.657-1.222,4.585a.3.3,0,1,0,.506.325c.242-.377,2.335-3.728,1.2-5.268C131.2.121,129.95,0,127.975.548c-3.464.962-8.223,4.024-11.842,7.62-2.476,2.459-6.492,7.226-5.578,11.52a3.217,3.217,0,0,0,2.5,2.663,5.4,5.4,0,0,0,1.3.145c5.085,0,13.69-5.621,17.288-9.939a.3.3,0,0,0-.462-.385Zm9,.079a.3.3,0,0,0-.395-.159c-.052.022-5.24,2.22-7.185,1.936-.638-.093-.757-.368-.79-.567-.18-1.073,1.708-3.271,2.624-3.743a.3.3,0,1,0-.276-.535c-.981.506-3.192,2.883-2.942,4.377.068.409.349.925,1.3,1.063a3.159,3.159,0,0,0,.451.029c2.317,0,6.852-1.92,7.057-2.008a.3.3,0,0,0,.159-.395Zm-4.87-3.462a.39.39,0,1,0-.39-.39A.39.39,0,0,0,135.31,8.789Zm17.4,3.489a.3.3,0,0,0-.424-.034,7.291,7.291,0,0,1-4.505,1.429,2.468,2.468,0,0,1-1.607-.473,10.467,10.467,0,0,0,1.8-1.6c.545-.626,1.137-1.5.856-2.092-.1-.209-.339-.456-.931-.439a3.274,3.274,0,0,0-2.75,3.153,2.009,2.009,0,0,0,.172.826,4.793,4.793,0,0,1-3.672.916c-.969-.3-.957-.738-.953-.88.033-1.177,2.622-2.968,3.031-3.072a.3.3,0,1,0-.148-.583c-.547.139-3.441,2.048-3.485,3.639-.013.471.215,1.108,1.374,1.471a3.048,3.048,0,0,0,.916.134,6.514,6.514,0,0,0,3.276-1.127,2.938,2.938,0,0,0,2.112.732,7.807,7.807,0,0,0,4.9-1.573.3.3,0,0,0,.034-.423Zm-6.961-.062a2.7,2.7,0,0,1,2.165-2.547h.039c.178,0,.3.035.331.094.069.146-.078.651-.765,1.44a9.936,9.936,0,0,1-1.687,1.5A1.439,1.439,0,0,1,145.753,12.217Zm27.305.032a.3.3,0,0,0-.4-.157c-.049.021-4.882,2.1-6.779,1.912-.08-.008-.182-.029-.208-.087-.192-.409.835-1.921,1.387-2.733.8-1.173,1.063-1.6.865-1.914a.415.415,0,0,0-.438-.18,11.521,11.521,0,0,0-3.06,1.88c-1.511,1.081-3.579,2.559-4.331,2.559h-.008c-.105,0-.136-.038-.15-.055-.2-.242-.061-1.109.043-1.743.145-.883.259-1.581-.121-1.884a.691.691,0,0,0-.727-.038,18.082,18.082,0,0,0-2.861,1.982c-1.181.91-3.143,2.419-3.624,2.376-.159-.767,1.608-3.214,2.927-4.722a.3.3,0,1,0-.453-.4c-.57.652-3.4,3.969-3.051,5.29a.543.543,0,0,0,.354.393.658.658,0,0,0,.214.034c.679,0,1.86-.848,4-2.5a18.648,18.648,0,0,1,2.721-1.9.5.5,0,0,1,.128-.037,4.236,4.236,0,0,1-.1,1.3c-.149.912-.29,1.773.09,2.227a.77.77,0,0,0,.6.271h.014c.879,0,2.5-1.108,4.683-2.671a26.809,26.809,0,0,1,2.454-1.641c-.169.291-.446.7-.669,1.028-1.037,1.526-1.747,2.658-1.434,3.326a.785.785,0,0,0,.694.431c2.051.2,6.873-1.87,7.077-1.959A.3.3,0,0,0,173.058,12.249Zm13.075-.032a.3.3,0,0,0-.412-.108c-.034.02-3.444,2-5.427,1.884-.211-.012-.356-.06-.389-.128-.145-.308.6-1.328,1.043-1.938.564-.774.91-1.268.91-1.643a.386.386,0,0,0-.2-.356c-.325-.169-.749.108-2.173,1.1-1.636,1.137-4.107,2.858-5.589,2.752-.566-.039-.876-.22-.92-.536-.118-.848,1.387-2.521,3.248-3.194a3.35,3.35,0,0,1,3.144.2.3.3,0,0,0,.372-.473,3.925,3.925,0,0,0-3.72-.29c-2.043.738-3.812,2.606-3.639,3.843.05.358.308.972,1.474,1.053,1.694.119,4.167-1.6,5.974-2.859.442-.307.923-.641,1.258-.845-.165.271-.416.617-.622.9-.719.987-1.4,1.919-1.1,2.549a.96.96,0,0,0,.9.472q.1.006.2.006c2.169,0,5.424-1.888,5.565-1.971A.3.3,0,0,0,186.133,12.216Zm14.646.1a.3.3,0,0,0-.346-.247,46.858,46.858,0,0,0-6.276,1.65c.907-1.187,2.8-3.806,2.377-4.49A.521.521,0,0,0,196.2,9c-.626-.143-1.894.644-4.085,2.047a25.181,25.181,0,0,1-4.529,2.531c-.333.107-1.134.3-1.364-.225-.287-.654.394-2.226,2.378-3.36,2.773-1.584,3.665-.285,3.7-.225a.3.3,0,0,0,.512-.317c-.048-.077-1.2-1.874-4.514.019-2.194,1.253-3.073,3.117-2.63,4.125.3.673,1.08.881,2.1.556a24.959,24.959,0,0,0,4.671-2.6A16.052,16.052,0,0,1,196,9.576a16.608,16.608,0,0,1-2.878,4.493c-.779.269-1.553.552-2.3.843-2.759,1.075-6.071,2.605-6.177,3.792-.025.285.093.677.8.931a2.5,2.5,0,0,0,.848.142c2.525,0,5.661-3.365,7.177-5.191a49.1,49.1,0,0,1,7.062-1.921.3.3,0,0,0,.247-.346Zm-11.131,5.262c-1.656,1.317-3.039,1.831-4,1.487-.126-.045-.416-.165-.4-.311.035-.4,1.3-1.531,5.8-3.284.427-.166.863-.33,1.3-.49A22.067,22.067,0,0,1,189.648,17.581Z" transform="matrix(1, -0.021, 0.021, 1, -20459.271, -10402.092)" fill="#a7a9ac"/><path d="M346.582,297.524h-.4c-14.561-.3-28.11-10.516-35.39-35.795-2.123-7.28-4.045-21.537-5.865-42.266-.708-7.988-1.213-15.471-1.517-20.223-.2-2.629-.3-4.752-.4-6.269a18.757,18.757,0,0,1-.1-2.225h0a3.594,3.594,0,0,1,1.314-3.236h0a3.891,3.891,0,0,1,4.146-.708h0a3.9,3.9,0,0,1,2.427,3.539h0c.3,6.775,3.236,54.2,7.584,69.264,6.168,21.436,17.088,29.829,27.807,30.031,8.8.2,16.482-3.64,21.436-18.807,1.112-3.438,2.022-7.078,2.831-10.516,3.539-14.763,7.28-29.93,32.256-29.93h1.011c26.9.4,30.941,17.7,34.581,32.964,1.314,5.662,2.73,11.628,5.258,16.482,5.157,10.01,12.538,10.516,20.223,9.707,20.324-2.123,31.75-25.987,31.851-44.389V234.732h0v-.2h0c.3-3.337,2.225-4.045,3.943-4.146h0a4.135,4.135,0,0,1,4.045,4.045h0v.3h0v10.516c-.1,21.942-13.347,49.647-39.03,52.276-11.123,1.112-21.537-1.112-28.211-14.055-2.932-5.764-4.449-12.134-5.966-18.3-3.539-14.763-6.269-26.492-26.9-26.8-19.515-.3-21.841,9.3-25.38,23.863-.91,3.539-1.82,7.28-3.033,11.022C369.333,291.761,358.918,297.524,346.582,297.524Z" transform="translate(-20762.207 -10789.72)" fill="#00d3bd"/></g></svg>